<svg xmlns="http://www.w3.org/2000/svg" xmlns:xlink="http://www.w3.org/1999/xlink" width="150" zoomAndPan="magnify" viewBox="0 0 112.5 74.999997" height="100" preserveAspectRatio="xMidYMid meet" version="1.0"><defs><g/><clipPath id="710e9fa67e"><path d="M 0.015625 55.328125 L 36.167969 55.328125 L 36.167969 64.378906 L 0.015625 64.378906 Z M 0.015625 55.328125 " clip-rule="nonzero"/></clipPath><clipPath id="a9fa13917d"><path d="M 0.015625 7.632812 L 45.546875 7.632812 L 45.546875 64.378906 L 0.015625 64.378906 Z M 0.015625 7.632812 " clip-rule="nonzero"/></clipPath></defs><g clip-path="url(#710e9fa67e)"><path fill="#5e17eb" d="M 36.148438 55.628906 C 33.546875 55.625 32.125 56.527344 30.824219 57.359375 C 29.289062 58.335938 27.910156 59.210938 25.0625 58.488281 C 25 58.472656 24.828125 58.417969 24.570312 58.335938 C 23.109375 57.863281 18.816406 56.476562 16.375 56.445312 C 15.179688 56.429688 14.738281 56.683594 14.734375 57.066406 C 14.722656 57.90625 16.390625 59.371094 17.378906 60.238281 C 17.636719 60.464844 17.851562 60.652344 17.984375 60.789062 C 18.925781 61.730469 19.242188 62.621094 19.128906 63.269531 C 19.070312 63.621094 18.886719 63.90625 18.609375 64.09375 C 18.335938 64.277344 17.980469 64.363281 17.566406 64.335938 C 16.535156 64.265625 15.101562 63.453125 13.726562 61.492188 C 13.285156 60.859375 12.851562 60.246094 12.394531 59.832031 C 11.964844 59.441406 11.503906 59.226562 10.984375 59.355469 C 10.164062 59.554688 10.046875 60.324219 9.917969 61.167969 C 9.777344 62.105469 9.621094 63.125 8.59375 63.734375 C 7.664062 64.285156 6.882812 64.144531 6.074219 64 C 5.472656 63.894531 4.851562 63.78125 4.15625 63.996094 C 3.453125 64.210938 2.726562 64.40625 1.984375 64.507812 C 1.332031 64.59375 0.675781 64.609375 0.015625 64.503906 L 0.230469 64.183594 C 0.800781 64.257812 1.371094 64.238281 1.9375 64.160156 C 2.65625 64.0625 3.367188 63.871094 4.054688 63.660156 C 4.832031 63.421875 5.492188 63.542969 6.136719 63.65625 C 6.875 63.789062 7.59375 63.917969 8.417969 63.433594 C 9.300781 62.90625 9.441406 61.972656 9.574219 61.117188 C 9.71875 60.148438 9.851562 59.273438 10.902344 59.015625 C 11.558594 58.855469 12.113281 59.105469 12.628906 59.570312 C 13.117188 60.011719 13.558594 60.644531 14.011719 61.289062 C 15.316406 63.152344 16.644531 63.921875 17.589844 63.988281 C 17.925781 64.011719 18.207031 63.941406 18.414062 63.804688 C 18.609375 63.667969 18.742188 63.464844 18.785156 63.210938 C 18.878906 62.664062 18.585938 61.886719 17.738281 61.035156 C 17.621094 60.917969 17.40625 60.730469 17.148438 60.5 C 16.117188 59.59375 14.371094 58.0625 14.382812 57.0625 C 14.390625 56.472656 14.925781 56.078125 16.378906 56.097656 C 18.871094 56.128906 23.203125 57.527344 24.675781 58 C 24.925781 58.082031 25.089844 58.136719 25.144531 58.148438 C 27.851562 58.832031 29.167969 57.996094 30.636719 57.0625 C 31.460938 56.535156 32.335938 55.980469 33.515625 55.632812 C 34.390625 55.375 35.546875 55.300781 36.148438 55.628906 " fill-opacity="1" fill-rule="nonzero"/></g><g clip-path="url(#a9fa13917d)"><path fill="#5e17eb" d="M 3.886719 58.679688 C 2.359375 57.035156 3.253906 53.4375 3.804688 51.355469 C 4.558594 48.691406 5.464844 46.304688 6.425781 44.507812 C 7.972656 43.578125 14.269531 41.109375 18.824219 33.226562 L 13.421875 35.648438 C 20.082031 31.257812 24.570312 22.980469 32.882812 18.503906 C 32.882812 18.503906 27.25 18.769531 24.261719 20.859375 C 24.261719 20.859375 27.757812 17.890625 36.585938 16.59375 L 33.289062 14.957031 L 37.785156 15.542969 C 37.785156 15.542969 39.972656 10.261719 45.820312 8.324219 C 45.820312 8.324219 25.046875 3.480469 18.078125 19.4375 C 18.078125 19.4375 19.328125 15.484375 21.246094 12.078125 C 21.246094 12.078125 11.480469 14.164062 6.792969 27.507812 C 6.792969 27.507812 7.917969 22.03125 9.109375 19.589844 C 9.109375 19.589844 3.105469 24.957031 3.359375 35.589844 C 3.359375 35.589844 1.96875 32.007812 2.339844 29.023438 C 2.339844 29.023438 -2.496094 35.609375 3.5 43.109375 C 4.285156 41.359375 11.925781 23.566406 23.703125 17.476562 C 9.640625 27.875 1.847656 47.421875 0.015625 64.503906 L 3.886719 58.679688 " fill-opacity="1" fill-rule="evenodd"/></g><g fill="#000000" fill-opacity="1"><g transform="translate(26.003192, 42.317338)"><g><path d="M 4.25 -12.953125 L 4.25 -5.203125 C 4.25 -4.429688 4.4375 -3.832031 4.8125 -3.40625 C 5.195312 -2.988281 5.757812 -2.78125 6.5 -2.78125 C 7.238281 -2.78125 7.800781 -2.988281 8.1875 -3.40625 C 8.582031 -3.832031 8.78125 -4.429688 8.78125 -5.203125 L 8.78125 -12.953125 L 11.9375 -12.953125 L 11.9375 -5.21875 C 11.9375 -4.0625 11.691406 -3.082031 11.203125 -2.28125 C 10.710938 -1.488281 10.050781 -0.890625 9.21875 -0.484375 C 8.382812 -0.078125 7.457031 0.125 6.4375 0.125 C 5.414062 0.125 4.5 -0.0703125 3.6875 -0.46875 C 2.882812 -0.863281 2.25 -1.460938 1.78125 -2.265625 C 1.320312 -3.078125 1.09375 -4.0625 1.09375 -5.21875 L 1.09375 -12.953125 Z M 4.25 -12.953125 "/></g></g></g><g fill="#000000" fill-opacity="1"><g transform="translate(39.016611, 42.317338)"><g><path d="M 2.71875 -11.359375 C 2.15625 -11.359375 1.695312 -11.519531 1.34375 -11.84375 C 1 -12.175781 0.828125 -12.582031 0.828125 -13.0625 C 0.828125 -13.550781 1 -13.957031 1.34375 -14.28125 C 1.695312 -14.613281 2.15625 -14.78125 2.71875 -14.78125 C 3.257812 -14.78125 3.703125 -14.613281 4.046875 -14.28125 C 4.398438 -13.957031 4.578125 -13.550781 4.578125 -13.0625 C 4.578125 -12.582031 4.398438 -12.175781 4.046875 -11.84375 C 3.703125 -11.519531 3.257812 -11.359375 2.71875 -11.359375 Z M 4.296875 1.328125 C 4.296875 2.597656 3.972656 3.507812 3.328125 4.0625 C 2.691406 4.625 1.804688 4.90625 0.671875 4.90625 L -0.578125 4.90625 L -0.578125 2.234375 L 0.1875 2.234375 C 0.53125 2.234375 0.773438 2.164062 0.921875 2.03125 C 1.066406 1.894531 1.140625 1.671875 1.140625 1.359375 L 1.140625 -10.296875 L 4.296875 -10.296875 Z M 4.296875 1.328125 "/></g></g></g><g fill="#000000" fill-opacity="1"><g transform="translate(44.443485, 42.317338)"><g><path d="M 2.734375 -11.359375 C 2.179688 -11.359375 1.726562 -11.519531 1.375 -11.84375 C 1.019531 -12.175781 0.84375 -12.582031 0.84375 -13.0625 C 0.84375 -13.550781 1.019531 -13.957031 1.375 -14.28125 C 1.726562 -14.613281 2.179688 -14.78125 2.734375 -14.78125 C 3.273438 -14.78125 3.71875 -14.613281 4.0625 -14.28125 C 4.414062 -13.957031 4.59375 -13.550781 4.59375 -13.0625 C 4.59375 -12.582031 4.414062 -12.175781 4.0625 -11.84375 C 3.71875 -11.519531 3.273438 -11.359375 2.734375 -11.359375 Z M 4.296875 -10.296875 L 4.296875 0 L 1.140625 0 L 1.140625 -10.296875 Z M 4.296875 -10.296875 "/></g></g></g><g fill="#000000" fill-opacity="1"><g transform="translate(49.888814, 42.317338)"><g><path d="M 0.515625 -5.171875 C 0.515625 -6.222656 0.710938 -7.148438 1.109375 -7.953125 C 1.515625 -8.753906 2.0625 -9.367188 2.75 -9.796875 C 3.4375 -10.222656 4.207031 -10.4375 5.0625 -10.4375 C 5.78125 -10.4375 6.410156 -10.289062 6.953125 -10 C 7.503906 -9.707031 7.929688 -9.320312 8.234375 -8.84375 L 8.234375 -10.296875 L 11.390625 -10.296875 L 11.390625 0 L 8.234375 0 L 8.234375 -1.453125 C 7.921875 -0.972656 7.488281 -0.585938 6.9375 -0.296875 C 6.394531 -0.00390625 5.757812 0.140625 5.03125 0.140625 C 4.195312 0.140625 3.4375 -0.0703125 2.75 -0.5 C 2.0625 -0.9375 1.515625 -1.554688 1.109375 -2.359375 C 0.710938 -3.171875 0.515625 -4.109375 0.515625 -5.171875 Z M 8.234375 -5.140625 C 8.234375 -5.929688 8.015625 -6.550781 7.578125 -7 C 7.140625 -7.457031 6.609375 -7.6875 5.984375 -7.6875 C 5.347656 -7.6875 4.8125 -7.460938 4.375 -7.015625 C 3.945312 -6.566406 3.734375 -5.953125 3.734375 -5.171875 C 3.734375 -4.378906 3.945312 -3.753906 4.375 -3.296875 C 4.8125 -2.835938 5.347656 -2.609375 5.984375 -2.609375 C 6.609375 -2.609375 7.140625 -2.832031 7.578125 -3.28125 C 8.015625 -3.738281 8.234375 -4.359375 8.234375 -5.140625 Z M 8.234375 -5.140625 "/></g></g></g><g fill="#000000" fill-opacity="1"><g transform="translate(62.422303, 42.317338)"><g><path d="M 7.421875 -10.40625 C 8.617188 -10.40625 9.578125 -10.015625 10.296875 -9.234375 C 11.023438 -8.453125 11.390625 -7.378906 11.390625 -6.015625 L 11.390625 0 L 8.25 0 L 8.25 -5.59375 C 8.25 -6.28125 8.066406 -6.8125 7.703125 -7.1875 C 7.347656 -7.570312 6.875 -7.765625 6.28125 -7.765625 C 5.675781 -7.765625 5.191406 -7.570312 4.828125 -7.1875 C 4.472656 -6.8125 4.296875 -6.28125 4.296875 -5.59375 L 4.296875 0 L 1.140625 0 L 1.140625 -10.296875 L 4.296875 -10.296875 L 4.296875 -8.9375 C 4.617188 -9.382812 5.050781 -9.738281 5.59375 -10 C 6.132812 -10.269531 6.742188 -10.40625 7.421875 -10.40625 Z M 7.421875 -10.40625 "/></g></g></g><g fill="#000000" fill-opacity="1"><g transform="translate(74.863502, 42.317338)"><g><path d="M 0.609375 -6.5 C 0.609375 -7.78125 0.882812 -8.921875 1.4375 -9.921875 C 1.988281 -10.921875 2.757812 -11.703125 3.75 -12.265625 C 4.738281 -12.828125 5.863281 -13.109375 7.125 -13.109375 C 8.65625 -13.109375 9.96875 -12.703125 11.0625 -11.890625 C 12.164062 -11.078125 12.898438 -9.96875 13.265625 -8.5625 L 9.796875 -8.5625 C 9.535156 -9.101562 9.164062 -9.515625 8.6875 -9.796875 C 8.21875 -10.078125 7.6875 -10.21875 7.09375 -10.21875 C 6.113281 -10.21875 5.320312 -9.878906 4.71875 -9.203125 C 4.113281 -8.523438 3.8125 -7.625 3.8125 -6.5 C 3.8125 -5.363281 4.113281 -4.457031 4.71875 -3.78125 C 5.320312 -3.101562 6.113281 -2.765625 7.09375 -2.765625 C 7.6875 -2.765625 8.21875 -2.90625 8.6875 -3.1875 C 9.164062 -3.46875 9.535156 -3.878906 9.796875 -4.421875 L 13.265625 -4.421875 C 12.898438 -3.023438 12.164062 -1.921875 11.0625 -1.109375 C 9.96875 -0.304688 8.65625 0.09375 7.125 0.09375 C 5.863281 0.09375 4.738281 -0.1875 3.75 -0.75 C 2.757812 -1.3125 1.988281 -2.085938 1.4375 -3.078125 C 0.882812 -4.078125 0.609375 -5.21875 0.609375 -6.5 Z M 0.609375 -6.5 "/></g></g></g><g fill="#000000" fill-opacity="1"><g transform="translate(88.929068, 42.317338)"><g><path d="M 8.984375 -6.640625 C 9.734375 -6.484375 10.335938 -6.113281 10.796875 -5.53125 C 11.253906 -4.945312 11.484375 -4.28125 11.484375 -3.53125 C 11.484375 -2.445312 11.101562 -1.585938 10.34375 -0.953125 C 9.582031 -0.316406 8.523438 0 7.171875 0 L 1.140625 0 L 1.140625 -12.953125 L 6.96875 -12.953125 C 8.289062 -12.953125 9.320312 -12.648438 10.0625 -12.046875 C 10.8125 -11.441406 11.1875 -10.625 11.1875 -9.59375 C 11.1875 -8.832031 10.984375 -8.195312 10.578125 -7.6875 C 10.179688 -7.1875 9.648438 -6.835938 8.984375 -6.640625 Z M 4.296875 -7.71875 L 6.359375 -7.71875 C 6.878906 -7.71875 7.273438 -7.828125 7.546875 -8.046875 C 7.828125 -8.273438 7.96875 -8.613281 7.96875 -9.0625 C 7.96875 -9.5 7.828125 -9.832031 7.546875 -10.0625 C 7.273438 -10.300781 6.878906 -10.421875 6.359375 -10.421875 L 4.296875 -10.421875 Z M 6.625 -2.546875 C 7.15625 -2.546875 7.5625 -2.664062 7.84375 -2.90625 C 8.132812 -3.144531 8.28125 -3.492188 8.28125 -3.953125 C 8.28125 -4.398438 8.128906 -4.753906 7.828125 -5.015625 C 7.523438 -5.273438 7.113281 -5.40625 6.59375 -5.40625 L 4.296875 -5.40625 L 4.296875 -2.546875 Z M 6.625 -2.546875 "/></g></g></g><g fill="#000000" fill-opacity="1"><g transform="translate(101.093385, 42.317338)"><g><path d="M 10.46875 -12.953125 L 10.46875 -10.421875 L 7.03125 -10.421875 L 7.03125 0 L 3.875 0 L 3.875 -10.421875 L 0.4375 -10.421875 L 0.4375 -12.953125 Z M 10.46875 -12.953125 "/></g></g></g></svg>